<svg width="500" height="500" viewBox="0 0 500 500" fill="none" xmlns="http://www.w3.org/2000/svg">
<path d="M445.082 485.81C423.696 492.066 399.926 483.21 381.294 472.784C359.097 460.371 338.743 444.377 314.285 436.379C307.623 434.196 300.716 432.724 293.71 431.89C294.89 431.105 296.07 430.296 297.25 429.535C307.967 422.47 319.127 415.748 331.221 411.284C343.807 406.672 357.056 404.12 370.453 403.924C394.715 403.581 420.058 410.916 437.511 428.382C445.353 436.232 451.449 445.873 454.694 456.495C456.291 461.77 457.25 467.167 457.299 472.686C457.324 474.943 457.324 477.396 456.316 479.481C456.095 479.923 455.8 480.291 455.48 480.659C455.21 480.683 454.964 480.732 454.669 480.732C452.137 480.831 450.416 482.204 449.507 483.971C448.892 484.093 448.278 484.216 447.663 484.314C446.754 484.437 445.844 485.075 445.082 485.81Z" fill="url(#paint0_linear_507_60)"/>
<path d="M110.137 377.577C131.252 387.635 156.079 389.671 178.424 382.41C200.916 375.124 219.475 360.111 238.501 346.716C275.692 320.541 317.21 296.034 364.185 296.525C385.718 296.745 407.326 301.823 426.646 311.366C445.599 320.737 463.863 334.352 475.047 352.555C487.559 372.941 487.436 397.448 487.707 420.581C487.928 439.74 486.379 463.143 469.541 475.262C469.688 472.49 469.541 469.693 469.246 466.97C466.665 442.708 452.137 421.341 431.809 408.168C410.177 394.136 382.892 389.475 357.499 392.517C343.881 394.16 330.804 397.791 318.292 403.458C306.419 408.806 295.456 415.871 284.738 423.181C263.18 437.827 241.745 451.981 217.754 462.407C194.205 472.637 168.813 479.506 143.15 481.395C117.192 483.308 90.9633 480.413 66.3819 471.705C45.1928 464.198 21.8651 451.834 14.8348 428.873C7.11626 403.63 17.6371 377.7 27.8384 354.812C37.9905 332.022 48.1917 309.257 58.393 286.491C58.1226 302.437 60.0645 318.211 66.849 333.224C75.4771 352.285 91.1845 368.574 110.137 377.577Z" fill="#FDFDFD"/>
<path d="M139.634 373.775C119.158 371.125 100.304 360.209 87.62 343.969C81.4009 336.021 76.6813 326.797 73.879 317.107C70.413 305.086 70.0444 292.526 70.7818 280.113C71.1505 273.76 71.8388 267.406 72.5762 261.077C72.6745 260.414 72.5516 259.801 72.355 259.212C72.3796 259.09 72.4287 258.992 72.4533 258.869C72.65 258.28 72.7483 257.618 72.7974 256.98C72.9941 256.269 73.0924 255.533 73.0679 254.772C73.117 254.576 73.1908 254.355 73.2153 254.134C73.5595 253.447 73.7562 252.711 73.8545 251.951C82.163 233.331 90.496 214.712 98.8291 196.093C110.431 170.187 122.058 144.257 135.087 119.014C147.672 94.6054 161.487 70.4663 177.44 48.0444C184.077 38.6979 191.771 29.5476 201.555 23.292C212.002 16.6194 224.268 13.9455 236.485 12.9397C260.378 11.0017 287.098 11.4678 307.549 25.5244C324.289 37.0542 334.171 56.1644 341.251 74.6367C349.633 96.4452 355.508 119.088 363.792 140.946C373.255 165.894 384.44 190.23 397.296 213.633C401.794 221.826 406.514 229.897 411.43 237.87C380.359 230.461 347.396 224.647 316.62 235.343C311.015 237.281 305.73 239.759 300.74 242.727C298.282 226.414 292.063 210.37 279.871 198.865C267.064 186.746 246.784 180.662 229.823 187.089C210.994 194.253 203.3 212.872 196.417 230.216C187.691 252.245 178.964 274.25 170.238 296.28C160.455 320.934 150.671 345.613 140.888 370.291C140.691 370.782 140.617 371.322 140.617 371.837C140.175 372.426 139.831 373.088 139.634 373.775Z" fill="url(#paint1_linear_507_60)"/>
<defs>
<linearGradient id="paint0_linear_507_60" x1="293.71" y1="445.903" x2="457.305" y2="445.903" gradientUnits="userSpaceOnUse">
<stop stop-color="#968CC3"/>
<stop offset="1" stop-color="white"/>
</linearGradient>
<linearGradient id="paint1_linear_507_60" x1="70.4657" y1="192.943" x2="411.43" y2="192.943" gradientUnits="userSpaceOnUse">
<stop stop-color="#968CC3"/>
<stop offset="1" stop-color="white"/>
</linearGradient>
</defs>
</svg>
